{
	"asset":{
		"version":"2.0",
		"generator":"Maxon Cinema 4D 2024.5.1 (#200000219)"
	},
	"scenes":[{
		"nodes":[0]
	}],
	"nodes":[{
		"name":"Cheese_PSR",
		"children":[1]
	},
	{
		"name":"Polygon Reduction",
		"children":[2]
	},
	{
		"name":"Volume Mesher",
		"mesh":0,
		"translation":[0.0,
		0.0,
		0.0],
		"rotation":[0.0,
		-0.36650121212005618,
		0.0,
		0.9304175972938538],
		"scale":[1.0,
		1.0,
		1.0]
	}],
	"meshes":[{
		"name":"Volume Mesher",
		"primitives":[{
			"attributes":{
				"POSITION":1,
				"NORMAL":2,
				"TEXCOORD_0":3
			},
			"indices":0,
			"material":0
		}]
	}],
	"accessors":[{
		"bufferView":0,
		"type":"SCALAR",
		"componentType":5123,
		"count":26928,
		"max":[4493],
		"byteOffset":0,
		"min":[0]
	},
	{
		"bufferView":1,
		"type":"VEC3",
		"componentType":5126,
		"count":4494,
		"max":[0.5978120565414429,
		0.399990975856781,
		0.6393725275993347],
		"byteOffset":0,
		"min":[-0.8051770925521851,
		-0.39999791979789736,
		-0.7901970148086548]
	},
	{
		"bufferView":1,
		"type":"VEC3",
		"componentType":5126,
		"count":4494,
		"max":[0.9997307658195496,
		0.9999867677688599,
		0.9990331530570984],
		"byteOffset":12,
		"min":[-0.9996885657310486,
		-0.9999933242797852,
		-0.9997694492340088]
	},
	{
		"bufferView":1,
		"type":"VEC2",
		"componentType":5126,
		"count":4494,
		"max":[0.9963171482086182,
		0.9822492599487305],
		"byteOffset":24,
		"min":[0.00225752592086792,
		0.01304606907069683]
	}],
	"bufferViews":[{
		"buffer":0,
		"byteOffset":0,
		"byteLength":53856,
		"target":34963
	},
	{
		"buffer":0,
		"byteOffset":53856,
		"byteLength":143808,
		"target":34962,
		"byteStride":32
	}],
	"buffers":[{
		"uri":"data:application/octet-stream;base64,",
		"byteLength":197664
	}],
	"materials":[{
		"pbrMetallicRoughness":{
			"baseColorFactor":[1.0,
			0.4933920704845819,
			0.0,
			1.0],
			"metallicFactor":0.0,
			"roughnessFactor":0.33
		},
		"emissiveFactor":[0.0,
		0.0,
		0.0],
		"alphaMode":"OPAQUE",
		"doubleSided":false,
		"name":"Mat"
	}]
}